<svg xmlns="http://www.w3.org/2000/svg" viewBox="0 0 202.57 210.4"><defs><style>.cls-1{fill:#2d2d2d;}.cls-2{fill:#b85a6c;}.cls-3{fill:#e87289;}.cls-4{fill:#2c2c6d;}.cls-5{fill:#171211;opacity:0.1;}.cls-6{fill:#545250;}.cls-7{fill:#353535;}.cls-8{fill:#803c3b;}.cls-9{fill:#914949;}.cls-10{fill:#e8b491;}.cls-11{fill:#f2c2a0;}.cls-12{fill:#222228;}.cls-13{fill:#721a23;}.cls-14{fill:#d39484;}.cls-15{fill:#31384f;}.cls-16{fill:#918c88;}.cls-17{fill:#7f7974;}.cls-18{fill:#5b5a59;}.cls-19{fill:#414242;}.cls-20{fill:#141414;}.cls-21{fill:#3e4349;}.cls-22{fill:#f4f1ed;}.cls-23{fill:#d2d2c8;}.cls-24{fill:#b23b24;}</style></defs><g id="Calque_2" data-name="Calque 2"><g id="Calque_1-2" data-name="Calque 1"><path class="cls-1" d="M135.9,173.65s-19.18-12.4-21.24-16.7S127.31,143,127.31,143l2.59,6.87s.88-1.74,13.38,18.52C151.16,181.19,134.46,169.7,135.9,173.65Z"/><path d="M138.16,164.27s0-.08-.09-.11a1.38,1.38,0,0,0-1.91.25,1.34,1.34,0,0,0,.1,1.73l-6,5.89c7.19,2.44,10.16,9.72,11.56,20,2.73,1.45,3.26,1,4.1-.22s5.37-5.89,3.26-10.08c-1.42-2.83-2.45-5.62-2.31-6.69l5.08,3.92.59-.76-.64-.5a36.35,36.35,0,0,0-5.27-4.62c-1.77-1.82-4.29-4.24-4.29-4.24l-5.65,1.51.93-3.81a1.32,1.32,0,0,0,.68-.44,1.36,1.36,0,0,0-.14-1.79v0Z"/><rect class="cls-2" x="111.97" y="149.54" width="76.44" height="14.85" rx="3.88"/><path class="cls-2" d="M136.3,201.73l3.08-50.2a2.25,2.25,0,0,1,2.43-2h0a2.21,2.21,0,0,1,2.18,2.23L140.91,202a2.26,2.26,0,0,1-2.44,2h0A2.19,2.19,0,0,1,136.3,201.73Z"/><path class="cls-2" d="M185,201.73l-3.08-50.2a2.26,2.26,0,0,0-2.44-2h0a2.2,2.2,0,0,0-2.17,2.23L180.4,202a2.25,2.25,0,0,0,2.43,2h0A2.19,2.19,0,0,0,185,201.73Z"/><path class="cls-2" d="M111.94,201.73l3.08-50.2a2.26,2.26,0,0,1,2.44-2h0a2.2,2.2,0,0,1,2.17,2.23L116.55,202a2.25,2.25,0,0,1-2.43,2h0A2.19,2.19,0,0,1,111.94,201.73Z"/><path class="cls-2" d="M160.65,201.73l-3.08-50.2a2.25,2.25,0,0,0-2.43-2h0a2.21,2.21,0,0,0-2.18,2.23L156,202a2.25,2.25,0,0,0,2.44,2h0A2.19,2.19,0,0,0,160.65,201.73Z"/><path class="cls-2" d="M125.41,85.3h81a3.87,3.87,0,0,1,3.87,3.87v37.24a13,13,0,0,1-13,13H125.41a13,13,0,0,1-13-13V98.32a13,13,0,0,1,13-13Z" transform="translate(273.71 -48.98) rotate(90)"/><path class="cls-3" d="M167.38,158.06h-52a5.33,5.33,0,0,1-5.32-5.32h0a5.33,5.33,0,0,1,5.32-5.32h52a5.34,5.34,0,0,1,5.32,5.32h0A5.34,5.34,0,0,1,167.38,158.06Z"/><path class="cls-3" d="M127.75,78.52H200a0,0,0,0,1,0,0v54.13a0,0,0,0,1,0,0H127.75a12.09,12.09,0,0,1-12.09-12.09v-30A12.09,12.09,0,0,1,127.75,78.52Z" transform="translate(263.42 -52.26) rotate(90)"/><path class="cls-1" d="M128.3,187.59s-10.24-30.52-10.37-37.75,14-9.22,14-9.22l-.31,11S132.81,150,135.5,186C137.2,208.79,128.51,181.29,128.3,187.59Z"/><ellipse class="cls-1" cx="122.47" cy="151.15" rx="7.91" ry="15.85" transform="translate(-59.17 81.48) rotate(-30)"/><ellipse class="cls-1" cx="141.21" cy="141.96" rx="21.72" ry="10.99" transform="translate(-52.06 89.63) rotate(-30)"/><path d="M137.87,185a.9.9,0,0,0,0-.16,1.44,1.44,0,0,0-1.37-1.5,1.42,1.42,0,0,0-1.34,1.26l-8.45-1.26c2.5,7.95-1.51,15.47-8.87,23.64.52,3.38,1.24,3.49,2.71,3.44s8.07.72,10.13-4c1.39-3.16,3-6,3.95-6.56V207h1v-.9a43.43,43.43,0,0,0,.45-7.74,28.36,28.36,0,0,0-.26-6.63l-3.72-3.93,3.64-1.76a1.27,1.27,0,0,0,.78.29,1.41,1.41,0,0,0,1.34-1.32l0,0Z"/><path class="cls-4" d="M122.58,138.16l.52.4,12.8,9.72s5.48,4.91,4.62,9.32,6.5,9.25,6.5,9.25l22.5-18.7L133,133.83Z"/><path class="cls-5" d="M162.81,202.74c0,3.51-17.91,6.36-39.37,6.36s-38.33-2.85-38.33-6.36,16.88-6.37,38.33-6.37S162.81,199.22,162.81,202.74Z"/><ellipse class="cls-1" cx="130.27" cy="146.04" rx="12.57" ry="7.91" transform="translate(-64 122.46) rotate(-41.34)"/><rect class="cls-6" x="77.79" y="119.1" width="31.82" height="85.81"/><path class="cls-7" d="M94.94,106.32c0,2.52-4,2-8.92,2s-8.92.57-8.92-2,4-5.8,8.92-5.8S94.94,103.79,94.94,106.32Z"/><path class="cls-8" d="M119.88,52.11c.42-3.47-.61-7.8-.79-11.29-.37-6.84,0-11.3,4-17s11.43-9.69,18.69-8.52c7.9,1.27,9.53,2.14,15.84,7.48,4.7,4,5.79,10.94,6.46,13.63,1,4-.61,8.1-.79,12.18a18.09,18.09,0,0,0,3.79,11.72c2.42,3.12,5.83,5.53,8,8.82a14.25,14.25,0,0,1,.18,15.07,21.7,21.7,0,0,0-2.86,10.07l-22.08-18c-12.08,8.89-19.91.39-22.57-2.11C127.69,74.19,118.08,66.94,119.88,52.11Z"/><path class="cls-9" d="M169.53,83.05a4.44,4.44,0,0,0,2.72-2,6.07,6.07,0,0,0,.42-3.24,9,9,0,0,0-1-4A16.53,16.53,0,0,0,169,70.52c-1.18-1.18-2.24-2.44-3.31-3.71a41.29,41.29,0,0,1-3.36-4.32,19.48,19.48,0,0,1-2.83-10.16c-.13-4.09.38-8.18.22-12.28,0-.64-1-.64-1,0,.26,6.73-1.37,13.87,1.34,20.29,1.34,3.19,3.71,5.72,5.9,8.34,1,1.17,2.05,2.24,3.11,3.34a8.91,8.91,0,0,1,2.29,3.37,10.67,10.67,0,0,1,.33,2.39,7.91,7.91,0,0,1,0,1.82,3.11,3.11,0,0,1-2.39,2.48c-.61.21-.35,1.17.26,1Z"/><path class="cls-9" d="M161.79,74.25c.31-4-3.57-6.33-5.69-9.13a14.29,14.29,0,0,1-2.18-5.39c-.52-2.09-1-4.25-.43-6.38a.5.5,0,0,0-1-.27,12.13,12.13,0,0,0,.2,6,20.31,20.31,0,0,0,1.89,5.63c1.84,3.12,6.49,5.45,6.17,9.53,0,.65,1,.64,1,0Z"/><path class="cls-9" d="M123.85,65.46a4.73,4.73,0,0,1,0-3.93c.45-1.31,1-2.56,1.39-3.9a16.28,16.28,0,0,0-.05-8.26.5.5,0,0,0-1,.27,15.25,15.25,0,0,1-.26,8.8c-.81,2.39-2.4,5-1,7.52a.5.5,0,0,0,.86-.5Z"/><path class="cls-10" d="M138.65,64.16l1.14,8.47s0,2.54,5.79,2.4c5.35-.13,5.74-4.71,5.74-4.71L150,58.4Z"/><path class="cls-11" d="M155.3,50.25c.13,4.3-.33,5.06-1.58,7.22-1.67,2.88-2.24,5.64-8.11,7.69S134,65.1,131.09,60.74c-3.92-5.81-6.31-22.65-6.31-22.65s-5-15.38,17.31-16.92c12.69-.88,12.5,10.23,12.5,10.23a31.47,31.47,0,0,0,.72,8.8Z"/><path class="cls-12" d="M142.79,45.36c.18,1.47,1,2.58,1.84,2.47S146,46.45,145.8,45s-1-2.57-1.84-2.47S142.6,43.9,142.79,45.36Z"/><path class="cls-12" d="M130.17,47.55c.18,1.47,1,2.57,1.84,2.47s1.36-1.38,1.17-2.85-1-2.58-1.84-2.47S130,46.08,130.17,47.55Z"/><path class="cls-13" d="M140.48,39.49a6,6,0,0,1,1.78-1.59,6.29,6.29,0,0,1,2.31-.85,4.5,4.5,0,0,1,2.48.37,3.85,3.85,0,0,1,1.73,1.7,7.42,7.42,0,0,0-2-1A5.34,5.34,0,0,0,144.7,38a10.21,10.21,0,0,0-2.1.56C141.9,38.86,141.2,39.16,140.48,39.49Z"/><path class="cls-13" d="M134.25,40.09a10.1,10.1,0,0,0-3.65-.25,3,3,0,0,0-1.48.71,7.81,7.81,0,0,0-1.26,1.39,3.25,3.25,0,0,1,.69-1.93,3,3,0,0,1,1.86-1.15,4.27,4.27,0,0,1,2.11.17A4.4,4.4,0,0,1,134.25,40.09Z"/><path class="cls-14" d="M136.57,45.86c-.24,1.55-.66,3-1,4.52a7,7,0,0,0-.14,1.08,1.23,1.23,0,0,0,.05.43s0,0,0,0l.1.07c.07.05.16.08.23.13a7.2,7.2,0,0,0,2.2.57,5.32,5.32,0,0,1-2.37-.17,2.52,2.52,0,0,1-.29-.12l-.14-.08a.74.74,0,0,1-.18-.17,1.38,1.38,0,0,1-.2-.69,4.88,4.88,0,0,1,.08-1.22,13.34,13.34,0,0,1,.62-2.27A12.83,12.83,0,0,1,136.57,45.86Z"/><path class="cls-8" d="M129.22,19.83c2.47,4.34,7.19,7.06,11.79,9.39s9.66,4.61,15,5.41c1.26.19,2.92.08,3.32-1.06a2.48,2.48,0,0,0-.11-1.47,21.07,21.07,0,0,0-9.76-12.5c-4.85-2.68-11.19-3.1-16.1-.56"/><path class="cls-9" d="M156.84,33.7c-4.4-.49-8.53-2.22-12.56-4a34,34,0,0,1-9.08-5.19,14.83,14.83,0,0,1-3.57-4.63c-.28-.58-1.14-.07-.86.51a18,18,0,0,0,7.4,7.44,53.14,53.14,0,0,0,5.08,2.5c2,.88,4,1.74,6.06,2.49a33,33,0,0,0,7.53,1.85c.64.07.63-.93,0-1Z"/><path class="cls-8" d="M119.93,32.12c4.16,1.85,8.3,1.43,12.1.78s7.81-1.56,10.9-3.64a1.8,1.8,0,0,0,.87-2.41,3.5,3.5,0,0,0-1.06-1c-4.23-2.88-9.14-7.5-13.31-7s-7.47,6.36-8.08,10.64"/><path class="cls-9" d="M142.71,27.93c-3,2.24-6.89,3.13-10.48,3.85-3.91.78-7.92.76-11.56-1.06-.78-.4-1.47.78-.69,1.17a18.9,18.9,0,0,0,12.2,1.28A52.31,52.31,0,0,0,138,31.73a18.06,18.06,0,0,0,5.45-2.62c.69-.52,0-1.71-.69-1.18Z"/><path class="cls-15" d="M127.23,128.76c1.66,8.18,9.39,19,19.6,19s18.31-9.3,20-17.46C151.87,131.67,133.4,129.17,127.23,128.76Z"/><polygon class="cls-11" points="95.1 100.82 95.87 105.88 100.08 106.95 100.63 101 95.1 100.82"/><path class="cls-11" d="M93.27,100.75s-2.07-.47-6-1.72-6.73,1.28-8.43,2.89-1.16,2.82-.16,3.38,2.86-2.44,5-3.24,6.07,1.31,7.4,2.14,2.16,1.67,4.43,1.49Z"/><path class="cls-11" d="M94.88,100.58s-2.07-.47-6-1.72-6.73,1.28-8.43,2.89-1.16,2.82-.17,3.38,2.87-2.44,5-3.24,6.06,1.31,7.4,2.14,2.16,1.67,4.42,1.49Z"/><path class="cls-11" d="M92,102.81a15,15,0,0,1-4.4,2c-1.93.35-2.25,2.44,0,2.71s8-.59,8.57-2S92,102.81,92,102.81Z"/><path class="cls-4" d="M96.91,99.75c0-.64.36-1.15.73-1.14,5,.12,9.59.38,14,.28a38.62,38.62,0,0,0,6-.49l1.17-.25c.3-.11.63-.2.85-.29l.1-.06h0l0,0a.47.47,0,0,0,.09-.12.08.08,0,0,0,0-.06l.28-.44c.18-.35.4-.66.56-1a22,22,0,0,0,1-2.36C122.39,92,123,90,123.61,88c1.25-4.12,2.64-8.36,4.22-12.47,1.35-3.33,5.6-4.93,9.3-3.62s5.64,4.89,4.39,8c-1.67,3.81-3.13,7.62-4.56,11.59-.72,2-1.41,4-2.36,6.31a32.58,32.58,0,0,1-1.69,3.49c-.31.59-.72,1.19-1.08,1.77l-.65.91a7.52,7.52,0,0,1-.47.64c-.16.21-.4.37-.57.57L129,106.25a11.3,11.3,0,0,1-1.33.93,9.31,9.31,0,0,1-1.46.81l-.81.34-.7.28c-.88.31-1.7.51-2.54.72s-1.57.3-2.32.41a53.42,53.42,0,0,1-8.21.38c-5.13-.09-10-.56-14.55-.84-.34,0-.59-.56-.56-1.2Z"/><path class="cls-4" d="M167.23,93.43h0c0,.39,0,.77,0,1.16v.07l0,1.13v.08c0,.37,0,.74,0,1.12v.06c0,1.56,0,3.1-.08,4.58l-.2,26.89a2.34,2.34,0,0,1-1.06,2.21c-20.2,2.19-20.15,1.43-37.14-1.46-1.2-.67-1.35-1.88-1.22-3.66l1.19-27.79a199.42,199.42,0,0,1,1.14-25c4.06-3.22,8.55-2.14,11.29-2.14h4.18s14.1-3.29,21.91.28Z"/><path class="cls-4" d="M130.32,71.31l.06,0h0Z"/><path class="cls-10" d="M141,68.66s-.66.07-1.8,2.25c0-.21-1.88,11.35,1.16,20.6,0,0,6.86-8.94,10.08-17.55,0,0,.9-4,.51-4.55"/><path class="cls-4" d="M151.38,103.62c0-.67.32-1.2.68-1.19,4.37.07,8.56.51,12.18.59h.22l.1,0,.18,0a1,1,0,0,0,.3-.13c.21-.13.14-.42.05-.58l-.07-.15A.38.38,0,0,1,165,102l-.2-.75c-.27-1-.58-2.07-.9-3.13l-2-6.46c-1.38-4.35-2.79-8.77-4.11-13.23-.92-3.37,1.42-6.86,5.12-7.71s7.4,1.1,8.28,4.34c1.08,4.37,2.25,8.73,3.44,13.16L176.35,95c.28,1.15.56,2.31.83,3.51l.19.91.3,1.57c.23,1.07.38,2.14.51,3.19a14.36,14.36,0,0,1-.1,2.56,6.91,6.91,0,0,1-.65,2.34,8.41,8.41,0,0,1-3.27,3.72,12.29,12.29,0,0,1-4.91,1.68,23.33,23.33,0,0,1-2.79.21c-.48,0-1,0-1.42,0l-.71,0-.6,0c-4.49-.3-8.36-.89-12.12-1.11-.3,0-.52-.57-.5-1.23Z"/><path class="cls-11" d="M152.38,100h0l0,0a5.2,5.2,0,0,0-1-1.31c-1.2-1.47-3.23-3.69-5-4.07-1.6-.35-3.67,1.51-4.81,3.42L141,98c-2-.1-2.25,1-2.22,1.39v0a1.43,1.43,0,0,0,0,.55,1.19,1.19,0,0,0,.2.58,3.15,3.15,0,0,1,.31,1.21,1.13,1.13,0,0,0-.29.82c0,.45-.12,1.07.59,1.5a6.06,6.06,0,0,0,.28.65,1.21,1.21,0,0,0-.68,1.26c.09.51,0,1.26,1.12,1.56,0,.2,0,.42,0,.66a1.13,1.13,0,0,0-.28,1.06c.15.48.12,1.23,1.39,1.32l.13,0c.79,0,1.81.09,2,.12a27,27,0,0,0,6.81-.62c2.79-.54,2.27-4.19,2.27-4.19A8.43,8.43,0,0,0,152.38,100Z"/><path class="cls-15" d="M127.25,129.44c1.66,8.18,9.39,19,19.6,19s18.31-9.3,20-17.45C151.9,132.35,133.42,129.85,127.25,129.44Z"/><rect class="cls-16" y="108.4" width="163.49" height="10.8"/><polygon class="cls-17" points="77.79 204.91 4.65 197.91 4.65 119.1 77.79 119.1 77.79 204.91"/><rect class="cls-17" x="149.71" y="123.1" width="8.3" height="85.81"/><rect class="cls-17" x="77.28" y="119.1" width="80.58" height="32.79"/><rect class="cls-17" x="163.49" y="108.4" width="39.09" height="10.8" transform="translate(366.06 227.61) rotate(180)"/><polygon class="cls-18" points="197.66 201.91 158.02 208.91 158.02 119.1 197.66 119.1 197.66 201.91"/><polygon class="cls-19" points="74.82 98.13 14.79 98.13 7.24 54.38 67.27 54.38 74.82 98.13"/><polygon class="cls-1" points="74.82 98.13 77.5 98.13 69.95 54.38 67.27 54.38 74.82 98.13"/><rect class="cls-19" x="22.38" y="104.95" width="40.44" height="3.45"/><rect class="cls-1" x="62.81" y="104.95" width="2.36" height="3.45" transform="translate(127.99 213.35) rotate(180)"/><path class="cls-1" d="M56,76.25c1.43,8.29-4.13,15-12.42,15s-16.17-6.72-17.6-15,4.13-15,12.42-15S54.61,68,56,76.25Z"/><path class="cls-20" d="M43.33,108.4H37.07V78a3.14,3.14,0,0,1,3.13-3.13h0A3.14,3.14,0,0,1,43.33,78Z"/><path class="cls-21" d="M90.28,0a16.88,16.88,0,1,0,16.88,16.88A16.88,16.88,0,0,0,90.28,0Zm1.28,31.16V30A1.28,1.28,0,0,0,89,30v1.14a14.38,14.38,0,0,1-13-13h1.1a1.28,1.28,0,1,0,0-2.55H76a14.36,14.36,0,0,1,13-13V3.66a1.28,1.28,0,1,0,2.55,0V2.61a14.36,14.36,0,0,1,13,13h-1.09a1.28,1.28,0,0,0,0,2.55h1.1A14.36,14.36,0,0,1,91.56,31.16Z"/><path class="cls-21" d="M88.85,18.83l-6.31-4.77a1,1,0,0,1-.19-1.34,1,1,0,0,1,1.34-.19L90,17.3Z"/><path class="cls-21" d="M97.87,9.35l-7.53,7.89h-.08a1.47,1.47,0,1,0,1.47,1.47c0-.05,0-.09,0-.13l7.53-7.9a1,1,0,0,0-1.38-1.32Z"/><polyline class="cls-22" points="124.2 108.99 124.97 107.87 124.2 106.74 124.97 105.61 124.2 104.49 124.97 103.36 123.42 102.24 124.2 101.11 123.76 99.6 123.42 99.63 123.56 99.62 157.72 99.62 156.8 101.09 156.78 101.09 156.77 101.12 157.55 102.25 156.78 103.38 158.33 104.5 157.56 105.63 158.34 106.76 157.56 107.89 158.34 109.02"/><path class="cls-23" d="M157,100.8c-2.73.23-5.47.35-8.2.46s-5.46.15-8.19.19-5.47,0-8.2,0l-4.1-.1c-1.37-.07-2.74-.11-4.1-.21,1.36-.12,2.73-.19,4.09-.28l4.1-.18c2.73-.12,5.46-.16,8.2-.2s5.46,0,8.2,0S154.25,100.62,157,100.8Z"/><path class="cls-23" d="M156.77,103.38c-2.65.2-5.3.3-8,.38s-5.3.1-7.95.11-5.3,0-8-.12l-4-.14c-1.33-.08-2.65-.13-4-.25,1.33-.11,2.65-.16,4-.24l4-.14c2.66-.09,5.3-.1,8-.11s5.3,0,7.95.12S154.12,103.17,156.77,103.38Z"/><path class="cls-23" d="M157.85,107.83c-2.74.21-5.48.31-8.22.39s-5.48.11-8.22.13-5.48,0-8.22-.11l-4.11-.13c-1.37-.08-2.74-.13-4.11-.24,1.37-.12,2.74-.17,4.11-.25l4.11-.15c2.74-.09,5.48-.11,8.22-.12s5.48,0,8.22.11S155.11,107.63,157.85,107.83Z"/><path class="cls-23" d="M157.56,105.63c-2.72.21-5.43.3-8.15.38s-5.43.1-8.14.11-5.43,0-8.15-.12l-4.07-.14c-1.36-.08-2.72-.13-4.08-.25,1.36-.11,2.72-.16,4.08-.24l4.07-.13c2.72-.09,5.43-.11,8.15-.12s5.43,0,8.14.13S154.84,105.43,157.56,105.63Z"/><path class="cls-23" d="M157.55,102.25c-2.84.2-5.69.3-8.53.38s-5.69.1-8.54.11-5.68,0-8.53-.12l-4.26-.14c-1.43-.08-2.85-.13-4.27-.24,1.42-.12,2.84-.16,4.27-.25l4.26-.13c2.85-.09,5.69-.11,8.54-.12s5.68,0,8.53.12S154.71,102,157.55,102.25Z"/><polygon class="cls-1" points="136.9 164.45 132.63 157.79 128.97 166.48 136.9 164.45"/><path class="cls-24" d="M143.46,55.51a4.77,4.77,0,0,1-1,2.25,5.36,5.36,0,0,1-1.91,1.64,4,4,0,0,1-2.69.36,3,3,0,0,1-2-1.65,7,7,0,0,0,2.11.13,6.14,6.14,0,0,0,1.67-.58,17.69,17.69,0,0,0,1.73-1C142.08,56.29,142.7,55.89,143.46,55.51Z"/><ellipse class="cls-24" cx="138.11" cy="57.99" rx="1.7" ry="0.64" transform="translate(-11.59 52.7) rotate(-20.75)"/><ellipse class="cls-24" cx="141.09" cy="57.07" rx="2.34" ry="0.97" transform="translate(-9.46 79.42) rotate(-30.47)"/></g></g></svg>