<?xml version="1.0" encoding="UTF-8"?> <!-- Generator: Adobe Illustrator 25.4.1, SVG Export Plug-In . SVG Version: 6.00 Build 0) --> <svg xmlns="http://www.w3.org/2000/svg" xmlns:xlink="http://www.w3.org/1999/xlink" version="1.1" id="Layer_1" x="0px" y="0px" viewBox="0 0 500 446.45" style="enable-background:new 0 0 500 446.45;" xml:space="preserve"> <style type="text/css"> .st0{fill:#7B509B;} .st1{fill:#FFFFFF;} .st2{fill:#F7F7F7;} .st3{fill:#C6C6C6;} .st4{fill:#F7DD94;} .st5{fill:#EDAC80;} .st6{fill:#05293C;} .st7{fill:#011721;} .st8{fill:#11A999;} .st9{fill:#2D2D2D;} .st10{fill:#EFEFEF;} .st11{fill:#C4A6DD;} .st12{fill:#093D54;} .st13{fill:#F6D35E;} </style> <g> <g> <g> <g> <path class="st0" d="M154.49,448.12h208.37c54.38-34.52,90.47-95.27,90.47-164.45c0-107.51-87.15-194.66-194.66-194.66 S64.01,176.16,64.01,283.67C64.01,352.85,100.11,413.59,154.49,448.12z"></path> </g> </g> </g> <g> <path class="st1" d="M113.59,417.79c-0.14,0-0.27-0.08-0.33-0.21c-23.95-50.99-36.24-98.44-36.55-141.03 c-0.25-34.09,7.15-65.15,21.97-92.33c25.25-46.28,63.85-65.47,64.23-65.66c0.18-0.09,0.4-0.01,0.49,0.17 c0.09,0.18,0.01,0.4-0.17,0.49c-0.39,0.19-38.8,19.3-63.93,65.39c-23.19,42.54-39.48,117.44,14.62,232.65 c0.09,0.18,0.01,0.4-0.18,0.49C113.69,417.78,113.64,417.79,113.59,417.79z"></path> </g> <g> <g> <polygon class="st2" points="346.03,278.58 154.78,278.58 154.78,33.55 310.67,33.55 346.03,65.18 "></polygon> </g> <g> <polygon class="st3" points="310.67,65.18 346.03,65.18 310.67,33.55 "></polygon> </g> </g> <g> <g> <g> <path class="st1" d="M418.25,448.52H11.46c-0.28,0-0.51-0.18-0.51-0.41c0-0.22,0.23-0.41,0.51-0.41h406.78 c0.28,0,0.51,0.18,0.51,0.41C418.76,448.34,418.53,448.52,418.25,448.52z"></path> </g> </g> </g> <g> <g> <path class="st4" d="M408.5,198.11l-45.75,47.13l-63.94,10.94c-2.57,0.44-2.26,4.22,0.34,4.24l80.14,0.62l32.54-34.06 L408.5,198.11z"></path> </g> </g> <g> <g> <path class="st5" d="M312.26,253.88l-13.45,2.3c-2.57,0.44-2.26,4.22,0.34,4.24l16.82,0.13L312.26,253.88z"></path> </g> </g> <g> <g> <g> <path class="st6" d="M325.3,324.29c0,0-41.07,56.01-83.15,116.48c-2.73,3.93,1.97,8.75,5.95,6.1 c19.4-12.9,53.31-38.2,94.29-80.46l13.32-23.46L325.3,324.29z"></path> </g> </g> <g> <g> <path class="st5" d="M253.5,424.52c-3.76,5.35-7.55,10.78-11.35,16.24c-2.73,3.93,1.97,8.75,5.95,6.1 c5.19-3.45,11.43-7.8,18.55-13.11L253.5,424.52z"></path> </g> </g> <g> <g> <path class="st7" d="M342.38,366.4l13.32-23.46l-6.86-4.21l-23.55-14.44l-58.65,109.47l0,0 C286.15,419.21,312.37,397.36,342.38,366.4z"></path> </g> </g> <g> <g> <path class="st6" d="M442.59,304.29c-8.66-17.3-39.86-22.56-39.86-22.56c-30,13.38-77.43,42.57-77.43,42.57 c13.72,50.2,55.01,101.59,73.35,122.66c2.33,2.67,6.68,0.38,5.79-3.05c-10.64-41.01-32.52-106.63-32.52-106.63 c31.23-7.96,49.82-16.42,60.88-23.55C436.7,311.2,440,307.98,442.59,304.29L442.59,304.29z"></path> </g> </g> <g> <g> <path class="st7" d="M371.92,337.27c31.23-7.96,49.82-16.42,60.88-23.55c3.91-2.52,7.21-5.74,9.79-9.43h0 c-2.84-5.68-8.11-10.05-13.91-13.38c0,0-51.58,21.26-82.65,40.6c7.22,42.24,25.86,83.17,43.75,104.95l2.33-0.39l8.44-6.52 C389.24,389.21,371.92,337.27,371.92,337.27z"></path> </g> </g> <g> <g> <path class="st5" d="M404.43,443.9c-1.79-6.9-3.9-14.5-6.17-22.37l-10.96,11.89c4.29,5.31,8.17,9.88,11.35,13.53 C400.98,449.62,405.33,447.33,404.43,443.9z"></path> </g> </g> <g> <g> <ellipse transform="matrix(0.231 -0.973 0.973 0.231 154.652 543.848)" class="st7" cx="421.36" cy="174.09" rx="18.03" ry="18.03"></ellipse> </g> </g> <g> <g> <circle class="st7" cx="440.76" cy="171.99" r="5.67"></circle> </g> </g> <g> <g> <path class="st5" d="M396.98,185.54l8.83,7.57l6.2-1.31c0.78-0.17,1.57,0.27,1.83,1.03c0.28,0.8-0.11,1.67-0.89,2 c0,0,7.02-2.78,10.52-1.25c-1.54-2.01-1.32-1.8-2.75-3.44c-4.28-4.87-8.24-0.44-10.5-10.27c-1.24-5.39-4.75-3.99-4.75-3.99 L396.98,185.54z"></path> </g> </g> <g> <g> <path class="st1" d="M427.69,199.44c-2.2-3.27-4.37-6.14-6.45-8.66c0.73,0.89,1.47,1.82,2.23,2.8 c-3.5-1.53-10.52,1.25-10.52,1.25c-1.65,0.7-3.18,1.79-4.45,3.29c-14.64,17.24-31.85,45.64-31.85,45.64l-58.49-52.31 c-1.67-1.49-4.17,0.48-3.1,2.45c20.92,38.39,51.99,66.35,51.99,66.35h17.84l12.16-10.14l5.68,31.62c0,0,31.2,5.26,39.86,22.56h0 c4.3-6.14,6.63-13.6,6.49-21.33C448.32,239.99,436.8,212.95,427.69,199.44z"></path> </g> </g> <g> <g> <path class="st5" d="M327,199.35l-8.84-7.91c-1.67-1.49-4.17,0.48-3.1,2.45c2.02,3.7,4.13,7.31,6.3,10.8L327,199.35z"></path> </g> </g> <g> <g> <path class="st4" d="M397.05,250.1l5.68,31.62c0,0,31.2,5.26,39.86,22.56h0c-15.74-30.55-24.34-78.92-24.34-78.92 C404.78,244.66,397.05,250.1,397.05,250.1z"></path> </g> </g> <g> <g> <g> <path class="st8" d="M445.63,315.71L445.63,315.71c1.98,0.44,3.97-0.7,4.44-2.54l23.64-92.07c0.47-1.85-0.75-3.7-2.72-4.15l0,0 c-1.98-0.44-3.97,0.7-4.44,2.54l-23.64,92.07C442.43,313.41,443.65,315.27,445.63,315.71z"></path> </g> </g> <g> <g> <path class="st9" d="M473.5,218.94l-30,90.31l0,0l-0.6,2.32c-0.47,1.85,0.75,3.7,2.72,4.15c1.98,0.44,3.97-0.7,4.44-2.54 l23.64-92.07C473.9,220.35,473.8,219.6,473.5,218.94z"></path> </g> </g> <g> <g> <path class="st8" d="M370.14,322.25L370.14,322.25c-6.1-4.03-3.05-13,4.43-13h77.36c4.63,0,6.63,5.48,2.96,8.12l-4.26,3.06 C425.67,338.35,395.56,339.03,370.14,322.25z"></path> </g> </g> <g> <g> <path class="st9" d="M354.66,448.07L354.66,448.07c0.99,0.22,1.98-0.35,2.22-1.27l30.84-120.08c0.24-0.92-0.37-1.85-1.36-2.07 l0,0c-0.99-0.22-1.98,0.35-2.22,1.27L353.3,446C353.06,446.92,353.67,447.85,354.66,448.07z"></path> </g> </g> <g> <g> <path class="st9" d="M469.69,448.07L469.69,448.07c-0.99,0.22-1.98-0.35-2.22-1.27l-30.84-120.08 c-0.24-0.92,0.37-1.85,1.36-2.07l0,0c0.99-0.22,1.98,0.35,2.22,1.27L471.06,446C471.29,446.92,470.68,447.85,469.69,448.07z"></path> </g> </g> <g> <g> <path class="st9" d="M450.63,320.43l4.26-3.06c1.44-1.04,2-2.51,1.88-3.92c-9.33-0.17-59.12-0.68-88.16,7.44 c0.43,0.49,0.93,0.95,1.54,1.36C395.56,339.03,425.67,338.35,450.63,320.43z"></path> </g> </g> </g> </g> <g> <g> <rect x="362.75" y="262.52" class="st10" width="4.86" height="185.6"></rect> </g> </g> <g> <g> <path class="st1" d="M411.85,341.55c-14.46,0-24.02-3.23-24.21-3.29c-0.21-0.07-0.32-0.31-0.25-0.52 c0.07-0.21,0.31-0.32,0.52-0.25c0.37,0.13,37.01,12.46,75.7-11.79c0.19-0.11,0.44-0.06,0.56,0.13c0.12,0.19,0.06,0.44-0.13,0.56 C444.75,338.47,425.96,341.55,411.85,341.55z"></path> </g> </g> <g> <g> <path class="st1" d="M453.33,234.91c-0.04,0-0.08,0-0.12-0.02c-0.21-0.06-0.34-0.29-0.27-0.51l5.69-18.82 c1.44-4.77,5.76-8.11,10.51-8.11c4.6,0,6.67,2.75,6.75,2.87c0.13,0.18,0.09,0.43-0.09,0.57c-0.18,0.13-0.43,0.1-0.57-0.09 c-0.08-0.1-1.93-2.54-6.1-2.54c-4.39,0-8.39,3.1-9.73,7.53l-5.69,18.82C453.67,234.8,453.51,234.91,453.33,234.91z"></path> </g> </g> <g> <g> <path class="st1" d="M275.65,268.97h-103.2c-0.22,0-0.41-0.18-0.41-0.41c0-0.22,0.18-0.41,0.41-0.41h103.2 c0.22,0,0.41,0.18,0.41,0.41C276.06,268.78,275.88,268.97,275.65,268.97z"></path> </g> </g> <g> <g> <path class="st7" d="M98.32,176.8l3.21-11.64l-21.58,2.21c-3.33,0.34-6.13,2.71-6.94,5.96c-1.33,5.32-1.54,13.55,6.51,20.25 l5.44-1.2l12.53-8.48L98.32,176.8z"></path> </g> <g> <path class="st11" d="M81.26,194.82l112.39-52.18c4.3-2,6.16,2.58,2.05,4.94L89.74,214.3L81.26,194.82z"></path> </g> <g> <path class="st2" d="M176.95,257.72l-49.87-11.69l-28.86-41.69l-4.26-6.15c-0.92-1.32-2.11-2.45-3.54-3.18 c-0.14-0.07-0.27-0.14-0.39-0.19c0,0-7-2.77-10.51-1.26c-1.39,1.8-2.8,3.74-4.23,5.87c-9.11,13.52-20.62,40.55-21.39,83.52 c-0.14,7.73,2.19,15.18,6.49,21.33h0c8.66-17.3,39.86-22.56,39.86-22.56l-1.01-38.63l14.73,18.28h62.5 C179.08,261.36,179.52,258.16,176.95,257.72z"></path> </g> <g> <g> <path class="st6" d="M60.39,304.29c8.65-17.3,39.86-22.56,39.86-22.56c30,13.38,67.13,31.65,67.13,31.65 c4.97,51.63,7.57,100.81,10.27,129.51c0.5,5.27-6.66,7.3-9.04,2.57c-23.9-47.44-37.54-108.19-37.54-108.19 c-31.23-7.96-49.82-16.42-60.88-23.55C66.28,311.2,62.98,307.98,60.39,304.29L60.39,304.29z"></path> </g> </g> <g> <path class="st7" d="M161.97,431.4l-12.24-105.76L80.2,287.92h0c-7.92,3.53-16.02,8.79-19.81,16.36h0 c2.59,3.69,5.89,6.91,9.79,9.43c11.06,7.12,29.65,15.59,60.88,23.55C131.06,337.27,142.2,386.85,161.97,431.4z"></path> </g> <g> <g> <path class="st5" d="M106.01,185.54l-8.83,7.57l-6.2-1.31c-0.78-0.17-1.57,0.27-1.83,1.03c-0.28,0.8,0.11,1.67,0.89,2 c0,0-7.02-2.78-10.52-1.25c1.54-2.01,1.32-1.8,2.75-3.44c4.28-4.87,8.24-0.44,10.5-10.27c1.24-5.39,4.75-3.99,4.75-3.99 L106.01,185.54z"></path> </g> </g> <g> <g> <g> <path class="st8" d="M57.36,315.71L57.36,315.71c-1.98,0.44-3.97-0.7-4.44-2.54L29.27,221.1c-0.47-1.85,0.75-3.7,2.72-4.15l0,0 c1.98-0.44,3.97,0.7,4.44,2.54l23.64,92.07C60.56,313.41,59.34,315.27,57.36,315.71z"></path> </g> </g> <g> <g> <path class="st9" d="M29.49,218.94l30,90.31l0,0l0.6,2.32c0.47,1.85-0.75,3.7-2.72,4.15c-1.98,0.44-3.97-0.7-4.44-2.54 L29.27,221.1C29.08,220.35,29.18,219.6,29.49,218.94z"></path> </g> </g> <g> <g> <path class="st8" d="M132.84,322.25L132.84,322.25c6.1-4.03,3.05-13-4.43-13H51.06c-4.63,0-6.63,5.48-2.96,8.12l4.26,3.06 C77.31,338.35,107.43,339.03,132.84,322.25z"></path> </g> </g> <g> <g> <path class="st9" d="M148.32,448.07L148.32,448.07c-0.99,0.22-1.98-0.35-2.22-1.27l-30.84-120.08 c-0.24-0.92,0.37-1.85,1.36-2.07l0,0c0.99-0.22,1.98,0.35,2.22,1.27L149.69,446C149.92,446.92,149.31,447.85,148.32,448.07z"></path> </g> </g> <g> <g> <path class="st9" d="M33.29,448.07L33.29,448.07c0.99,0.22,1.98-0.35,2.22-1.27l30.84-120.08c0.24-0.92-0.37-1.85-1.36-2.07 l0,0c-0.99-0.22-1.98,0.35-2.22,1.27L31.93,446C31.69,446.92,32.3,447.85,33.29,448.07z"></path> </g> </g> <g> <g> <path class="st9" d="M52.36,320.43l-4.26-3.06c-1.44-1.04-2-2.51-1.88-3.92c9.33-0.17,59.12-0.68,88.16,7.44 c-0.43,0.49-0.93,0.95-1.54,1.36C107.43,339.03,77.31,338.35,52.36,320.43z"></path> </g> </g> </g> <g> <path class="st5" d="M177.65,442.89c-0.52-5.52-1.04-11.81-1.56-18.72l-14,7.47c2.08,4.68,4.26,9.31,6.53,13.82 C170.99,450.19,178.14,448.16,177.65,442.89z"></path> </g> <g> <path class="st5" d="M162.26,261.38h14.22c2.61-0.02,3.05-3.22,0.48-3.66l-13.56-3.18L162.26,261.38z"></path> </g> <g> <path class="st5" d="M193.65,142.65l-11.02,5.11l2.56,6.44l10.5-6.61C199.8,145.22,197.95,140.65,193.65,142.65z"></path> </g> <g> <path class="st11" d="M100.25,281.72l-1.01-38.63l-12.45-19.21c0,0-28.38,42.53-26.39,80.41h0 C69.05,286.99,100.25,281.72,100.25,281.72z"></path> </g> </g> <g> <g> <path class="st10" d="M105.26,264.8h290.3c0.79,0,1.42-0.64,1.42-1.42v-1.71c0-0.79-0.64-1.42-1.42-1.42h-290.3 c-0.79,0-1.42,0.64-1.42,1.42v1.71C103.83,264.16,104.47,264.8,105.26,264.8z"></path> </g> </g> <g> <g> <rect x="138.21" y="262.52" class="st10" width="4.87" height="185.6"></rect> </g> </g> <g> <path class="st7" d="M257.38,257.96h-71.54c-0.72,0-1.3,0.58-1.3,1.3l0,0c0,0.72,0.58,1.3,1.3,1.3h71.54c0.72,0,1.3-0.58,1.3-1.3 l0,0C258.67,258.54,258.09,257.96,257.38,257.96z"></path> </g> <g> <polygon class="st7" points="255.2,257.96 197.08,257.96 215.79,219.68 273.91,219.68 "></polygon> </g> <g> <path class="st12" d="M239.16,241.24c-0.75,2.03-2.52,3.25-3.97,2.71s-2.01-2.61-1.26-4.64c0.75-2.03,2.52-3.25,3.97-2.71 C239.35,237.14,239.91,239.21,239.16,241.24z"></path> </g> <g> <g> <path class="st8" d="M202.93,89.37h-27.19c-0.2,0-0.37-0.16-0.37-0.37s0.16-0.37,0.37-0.37h27.19c0.2,0,0.37,0.16,0.37,0.37 S203.13,89.37,202.93,89.37z"></path> </g> <g> <path class="st8" d="M228.03,83.46h-52.3c-0.2,0-0.37-0.16-0.37-0.37c0-0.2,0.16-0.37,0.37-0.37h52.3c0.2,0,0.37,0.16,0.37,0.37 C228.4,83.29,228.23,83.46,228.03,83.46z"></path> </g> <g> <path class="st8" d="M228.03,77.54h-52.3c-0.2,0-0.37-0.16-0.37-0.37c0-0.2,0.16-0.37,0.37-0.37h52.3c0.2,0,0.37,0.16,0.37,0.37 C228.4,77.38,228.23,77.54,228.03,77.54z"></path> </g> </g> <g> <g> <path class="st8" d="M234.8,101.03h-41c-0.41,0-0.74-0.33-0.74-0.74c0-0.41,0.33-0.74,0.74-0.74h41c0.41,0,0.74,0.33,0.74,0.74 C235.53,100.7,235.2,101.03,234.8,101.03z"></path> </g> <g> <path class="st8" d="M234.8,109.63h-41c-0.41,0-0.74-0.33-0.74-0.74c0-0.41,0.33-0.74,0.74-0.74h41c0.41,0,0.74,0.33,0.74,0.74 C235.53,109.3,235.2,109.63,234.8,109.63z"></path> </g> <g> <path class="st8" d="M234.8,118.23h-41c-0.41,0-0.74-0.33-0.74-0.74c0-0.41,0.33-0.74,0.74-0.74h41c0.41,0,0.74,0.33,0.74,0.74 C235.53,117.9,235.2,118.23,234.8,118.23z"></path> </g> <g> <path class="st8" d="M234.8,126.83h-41c-0.41,0-0.74-0.33-0.74-0.74c0-0.41,0.33-0.74,0.74-0.74h41c0.41,0,0.74,0.33,0.74,0.74 C235.53,126.5,235.2,126.83,234.8,126.83z"></path> </g> <g> <path class="st8" d="M234.8,135.43h-41c-0.41,0-0.74-0.33-0.74-0.74c0-0.41,0.33-0.74,0.74-0.74h41c0.41,0,0.74,0.33,0.74,0.74 C235.53,135.1,235.2,135.43,234.8,135.43z"></path> </g> </g> <g> <g> <path class="st8" d="M209.98,180.97H176.1c-0.2,0-0.37-0.16-0.37-0.37c0-0.2,0.16-0.37,0.37-0.37h33.88 c0.2,0,0.37,0.16,0.37,0.37C210.35,180.81,210.18,180.97,209.98,180.97z"></path> </g> <g> <path class="st8" d="M209.98,189.57H176.1c-0.2,0-0.37-0.16-0.37-0.37c0-0.2,0.16-0.37,0.37-0.37h33.88 c0.2,0,0.37,0.16,0.37,0.37C210.35,189.41,210.18,189.57,209.98,189.57z"></path> </g> <g> <path class="st8" d="M193.04,198.17H176.1c-0.2,0-0.37-0.16-0.37-0.37c0-0.2,0.16-0.37,0.37-0.37h16.94 c0.2,0,0.37,0.16,0.37,0.37C193.41,198.01,193.24,198.17,193.04,198.17z"></path> </g> </g> <g> <g> <path class="st8" d="M253.64,180.97h-33.88c-0.2,0-0.37-0.16-0.37-0.37c0-0.2,0.16-0.37,0.37-0.37h33.88 c0.2,0,0.37,0.16,0.37,0.37C254.01,180.81,253.85,180.97,253.64,180.97z"></path> </g> <g> <path class="st8" d="M253.64,189.57h-33.88c-0.2,0-0.37-0.16-0.37-0.37c0-0.2,0.16-0.37,0.37-0.37h33.88 c0.2,0,0.37,0.16,0.37,0.37C254.01,189.41,253.85,189.57,253.64,189.57z"></path> </g> <g> <path class="st8" d="M236.7,198.17h-16.94c-0.2,0-0.37-0.16-0.37-0.37c0-0.2,0.16-0.37,0.37-0.37h16.94 c0.2,0,0.37,0.16,0.37,0.37C237.07,198.01,236.91,198.17,236.7,198.17z"></path> </g> </g> <g> <g> <path class="st8" d="M297.03,180.97h-33.88c-0.2,0-0.37-0.16-0.37-0.37c0-0.2,0.17-0.37,0.37-0.37h33.88 c0.2,0,0.37,0.16,0.37,0.37C297.4,180.81,297.24,180.97,297.03,180.97z"></path> </g> <g> <path class="st8" d="M297.03,189.57h-33.88c-0.2,0-0.37-0.16-0.37-0.37c0-0.2,0.17-0.37,0.37-0.37h33.88 c0.2,0,0.37,0.16,0.37,0.37C297.4,189.41,297.24,189.57,297.03,189.57z"></path> </g> <g> <path class="st8" d="M280.09,198.17h-16.94c-0.2,0-0.37-0.16-0.37-0.37c0-0.2,0.17-0.37,0.37-0.37h16.94 c0.2,0,0.37,0.16,0.37,0.37C280.46,198.01,280.3,198.17,280.09,198.17z"></path> </g> </g> <g> <g> <path class="st8" d="M313.67,101.03h-68.21c-0.41,0-0.74-0.33-0.74-0.74c0-0.41,0.33-0.74,0.74-0.74h68.21 c0.41,0,0.74,0.33,0.74,0.74C314.41,100.7,314.08,101.03,313.67,101.03z"></path> </g> <g> <path class="st8" d="M313.67,109.63h-68.21c-0.41,0-0.74-0.33-0.74-0.74c0-0.41,0.33-0.74,0.74-0.74h68.21 c0.41,0,0.74,0.33,0.74,0.74C314.41,109.3,314.08,109.63,313.67,109.63z"></path> </g> <g> <path class="st8" d="M313.67,118.23h-68.21c-0.41,0-0.74-0.33-0.74-0.74c0-0.41,0.33-0.74,0.74-0.74h68.21 c0.41,0,0.74,0.33,0.74,0.74C314.41,117.9,314.08,118.23,313.67,118.23z"></path> </g> <g> <path class="st8" d="M313.67,126.83h-68.21c-0.41,0-0.74-0.33-0.74-0.74c0-0.41,0.33-0.74,0.74-0.74h68.21 c0.41,0,0.74,0.33,0.74,0.74C314.41,126.5,314.08,126.83,313.67,126.83z"></path> </g> <g> <path class="st8" d="M313.67,135.43h-68.21c-0.41,0-0.74-0.33-0.74-0.74c0-0.41,0.33-0.74,0.74-0.74h68.21 c0.41,0,0.74,0.33,0.74,0.74C314.41,135.1,314.08,135.43,313.67,135.43z"></path> </g> </g> <g> <g> <path class="st13" d="M126.4,141.77h-5.46c-2.14,0-4.1,1.21-5.05,3.13l-1.36,2.74c-2.09,4.19-8.07,4.17-10.13-0.04l-1.3-2.66 c-0.95-1.94-2.92-3.17-5.07-3.17H49.76c-3.12,0-5.65-2.53-5.65-5.65V89.3c0-3.12,2.53-5.65,5.65-5.65h76.64 c3.12,0,5.65,2.53,5.65,5.65v46.82C132.05,139.24,129.52,141.77,126.4,141.77z"></path> </g> <g> <g> <path class="st1" d="M76.21,113.89c-0.21,0-0.43-0.01-0.65-0.03c-5.84-0.48-9.78-5.55-11.6-8.53c-0.11-0.17-0.05-0.4,0.12-0.51 c0.17-0.1,0.4-0.05,0.51,0.12c1.75,2.86,5.51,7.72,11.03,8.18c1.31,0.11,2.3-0.13,2.95-0.71c0.59-0.53,0.9-1.35,1.13-2.15 c0.66-2.24,0.98-4.56,0.95-6.89c0-0.15,0.09-0.29,0.24-0.35c0.15-0.05,0.31-0.01,0.41,0.1c0.53,0.62,1.03,1.27,1.54,1.91 c0.83,1.07,1.69,2.17,2.66,3.12c1.24,1.21,3.2,2.68,5.52,2.74c2.27,0.03,4.58-1.41,5.46-3.51c0.05-0.13,0.17-0.21,0.31-0.22 c0.13-0.01,0.27,0.06,0.34,0.18c0.65,1.06,2.22,1.25,3.08,1.21c0.27,0,0.55-0.01,0.82-0.02c1.04-0.03,2.12-0.07,3.12,0.35 c0.34,0.14,0.65,0.33,0.95,0.51c0.32,0.2,0.62,0.38,0.95,0.5c0.69,0.26,1.46,0.24,2.27,0.21c0.9-0.03,1.84-0.06,2.71,0.33 c0.19,0.08,0.27,0.3,0.19,0.49c-0.08,0.19-0.3,0.27-0.49,0.19c-0.71-0.31-1.52-0.29-2.38-0.26c-0.85,0.03-1.73,0.05-2.56-0.26 c-0.39-0.15-0.74-0.36-1.07-0.56c-0.29-0.18-0.56-0.34-0.85-0.46c-0.85-0.36-1.8-0.33-2.81-0.29c-0.29,0.01-0.56,0.02-0.87,0.02 c-1.07,0-2.43-0.2-3.29-1.07c-1.15,2.11-3.5,3.49-5.9,3.42c-2.57-0.07-4.69-1.65-6.02-2.96c-1.01-0.99-1.88-2.11-2.73-3.2 c-0.29-0.37-0.58-0.74-0.88-1.11c-0.06,2.06-0.39,4.11-0.98,6.09c-0.27,0.91-0.62,1.84-1.35,2.49 C78.38,113.58,77.42,113.89,76.21,113.89z"></path> </g> <g> <path class="st1" d="M80.55,121.11C80.55,121.11,80.55,121.11,80.55,121.11c-0.14,0-0.26-0.08-0.32-0.19 c-0.33-0.61-0.62-1.25-0.86-1.9c-0.14,0.15-0.3,0.29-0.47,0.4c-0.82,0.54-1.99,0.59-2.99,0.11c-0.71-0.34-1.34-0.91-1.89-1.71 c-2.92,1.92-6.89,2.16-10.01,0.59c-0.18-0.09-0.25-0.31-0.16-0.49c0.09-0.18,0.31-0.26,0.49-0.16c3,1.51,6.84,1.21,9.57-0.75 c0.08-0.06,0.19-0.08,0.29-0.06c0.1,0.02,0.19,0.08,0.24,0.17c0.52,0.84,1.12,1.43,1.79,1.75c0.77,0.37,1.66,0.35,2.27-0.06 c0.28-0.19,0.51-0.46,0.65-0.76c0.06-0.14,0.21-0.22,0.36-0.22c0.15,0.01,0.28,0.11,0.33,0.26c0.21,0.64,0.46,1.27,0.75,1.88 c0.34-0.64,0.62-1.31,0.85-2c0.04-0.12,0.14-0.21,0.26-0.24c0.12-0.03,0.25,0,0.34,0.09l2.16,2.01 c0.25,0.23,0.62,0.53,0.88,0.44c0.26-0.09,0.37-0.51,0.47-0.88c0.21-0.74,0.72-1.39,1.42-1.24c0.57,0.13,0.74,0.66,0.87,1.08 c0.07,0.21,0.14,0.43,0.24,0.57c0.13,0.16,0.1,0.39-0.06,0.52c-0.16,0.13-0.39,0.1-0.52-0.06c-0.19-0.24-0.29-0.54-0.37-0.8 c-0.12-0.37-0.19-0.55-0.33-0.58c-0.2-0.05-0.43,0.3-0.53,0.65c-0.15,0.56-0.34,1.24-0.96,1.45c-0.72,0.24-1.35-0.34-1.62-0.6 l-1.75-1.63c-0.29,0.76-0.64,1.5-1.06,2.2C80.8,121.05,80.68,121.11,80.55,121.11z"></path> </g> <g> <path class="st1" d="M97.96,122.26c-0.11,0-0.21-0.05-0.28-0.13c-1.15-1.38-2.74-2.39-4.48-2.83c-0.2-0.05-0.32-0.25-0.27-0.45 c0.05-0.2,0.24-0.32,0.45-0.27c1.7,0.43,3.27,1.35,4.47,2.63c0.2-0.55,0.33-1.12,0.38-1.71c0.01-0.06,0.03-0.12,0.06-0.17 c0.78-1.18,0.77-2.82-0.02-3.99c-0.07-0.1-0.08-0.24-0.03-0.35c0.05-0.12,0.16-0.2,0.28-0.22c1.19-0.17,2.42-0.05,3.55,0.35 c0.48,0.17,1.12,0.57,1.37,1.14c0.13,0.3,0.13,0.62,0,0.91c-0.18,0.42-0.57,0.64-0.86,0.8l-1.75,0.98l1.21,0.14 c0.66,0.08,1.41,0.16,2.03-0.09c0.51-0.21,0.97-0.8,0.8-1.31c-0.04-0.12-0.01-0.25,0.06-0.34c0.08-0.1,0.2-0.14,0.32-0.14 c0.73,0.06,1.4,0.49,1.8,1.09c0.31-0.55,0.74-1.02,1.39-1.1c1.11-0.14,1.83,0.92,2.32,1.63c0.35,0.51,1.1,1.2,1.62,0.87 c0.2-0.13,0.33-0.38,0.47-0.66c0.2-0.39,0.43-0.84,0.92-1.02c0.45-0.17,0.92-0.02,1.24,0.08l3.63,1.14 c0.32,0.1,0.6,0.17,0.83,0.11c0.09-0.03,0.18-0.11,0.22-0.2c-0.09-0.18-0.02-0.45,0.16-0.54c0.18-0.09,0.41-0.07,0.5,0.11 c0.12,0.22,0.12,0.48,0.02,0.72c-0.12,0.29-0.39,0.53-0.69,0.61c-0.46,0.13-0.92-0.01-1.25-0.12l-3.63-1.14 c-0.3-0.09-0.56-0.16-0.76-0.09c-0.23,0.08-0.36,0.35-0.52,0.67c-0.17,0.33-0.36,0.71-0.72,0.94c-0.9,0.58-1.99-0.15-2.63-1.07 c-0.53-0.77-1-1.4-1.61-1.32c-0.57,0.07-0.92,0.79-1.16,1.41c-0.06,0.15-0.22,0.24-0.38,0.23c-0.16-0.01-0.3-0.13-0.33-0.3 c-0.11-0.55-0.53-1.02-1.04-1.23c-0.07,0.72-0.64,1.36-1.29,1.63c-0.8,0.32-1.68,0.22-2.39,0.14l-2.35-0.27 c-0.16-0.02-0.29-0.14-0.32-0.29c-0.03-0.16,0.04-0.32,0.18-0.39l2.75-1.53c0.25-0.14,0.47-0.27,0.55-0.45 c0.05-0.11,0.04-0.21-0.01-0.33c-0.12-0.28-0.51-0.59-0.94-0.74c-0.85-0.3-1.75-0.44-2.64-0.38c0.64,1.32,0.57,2.97-0.22,4.21 c-0.08,0.83-0.3,1.63-0.66,2.39c-0.05,0.11-0.16,0.19-0.29,0.21C97.99,122.26,97.97,122.26,97.96,122.26z"></path> </g> </g> </g> <g> <path class="st13" d="M350.72,103.74c-0.2,0-0.37-0.16-0.37-0.37V62.88c0-0.2,0.17-0.37,0.37-0.37s0.37,0.16,0.37,0.37v40.49 C351.09,103.58,350.92,103.74,350.72,103.74z"></path> </g> </g> <g> <g> <path class="st8" d="M432.44,91.27h-27.36l-0.13-0.3c-0.52-1.24-12.68-30.42-12.68-39.89c0-14.61,11.88-26.49,26.49-26.49 c14.61,0,26.49,11.88,26.49,26.49c0,9.47-12.17,38.65-12.68,39.89L432.44,91.27z M405.73,90.29h26.05 c1.32-3.18,12.48-30.44,12.48-39.2c0-14.06-11.44-25.51-25.51-25.51s-25.51,11.44-25.51,25.51 C393.25,59.85,404.42,87.11,405.73,90.29z"></path> </g> <g> <path class="st8" d="M430.21,104.27h-22.91c-2.58,0-4.67-2.1-4.67-4.67c0-2.58,2.1-4.67,4.67-4.67h22.91 c2.57,0,4.67,2.1,4.67,4.67C434.88,102.18,432.79,104.27,430.21,104.27z M407.31,95.91c-2.03,0-3.69,1.65-3.69,3.69 c0,2.03,1.65,3.69,3.69,3.69h22.91c2.03,0,3.68-1.65,3.68-3.69c0-2.03-1.65-3.69-3.68-3.69H407.31z"></path> </g> <g> <path class="st8" d="M418.92,19.23h-0.32c-0.85,0-1.54-0.69-1.54-1.54V9.89c0-0.85,0.69-1.54,1.54-1.54h0.32 c0.85,0,1.54,0.69,1.54,1.54v7.81C420.46,18.54,419.77,19.23,418.92,19.23z M418.6,9.34c-0.3,0-0.55,0.25-0.55,0.55v7.81 c0,0.3,0.25,0.55,0.55,0.55h0.32c0.3,0,0.55-0.25,0.55-0.55V9.89c0-0.3-0.25-0.55-0.55-0.55H418.6z"></path> </g> <g> <g> <path class="st8" d="M443.65,26.43c-0.41,0-0.8-0.16-1.09-0.45l-0.23-0.23c-0.29-0.29-0.45-0.68-0.45-1.09 c0-0.41,0.16-0.8,0.45-1.09l5.52-5.52c0.58-0.58,1.59-0.58,2.17,0l0.23,0.23c0.29,0.29,0.45,0.67,0.45,1.08 c0,0.41-0.16,0.8-0.45,1.09l-5.52,5.52C444.44,26.27,444.06,26.43,443.65,26.43L443.65,26.43z M443.03,24.27 c-0.22,0.21-0.22,0.56,0,0.78l0.23,0.23c0.1,0.1,0.24,0.16,0.39,0.16l0,0c0.15,0,0.28-0.06,0.39-0.16l5.52-5.52 c0.1-0.1,0.16-0.24,0.16-0.39c0-0.15-0.06-0.28-0.16-0.39l-0.23-0.23c-0.21-0.2-0.57-0.21-0.78,0L443.03,24.27z"></path> </g> <g> <path class="st8" d="M453.32,47.2c-0.63,0-1.23-0.4-1.45-1.03l-0.11-0.3c-0.14-0.39-0.11-0.81,0.07-1.18 c0.18-0.37,0.49-0.65,0.88-0.78l7.37-2.59c0.39-0.14,0.8-0.11,1.17,0.06c0.37,0.18,0.65,0.49,0.78,0.88l0.11,0.3 c0.14,0.39,0.11,0.8-0.06,1.17c-0.18,0.37-0.49,0.65-0.88,0.78l-7.37,2.59C453.66,47.18,453.48,47.2,453.32,47.2z M460.58,42.22 c-0.06,0-0.12,0.01-0.18,0.03l-7.37,2.59c-0.14,0.05-0.25,0.15-0.32,0.28c-0.06,0.13-0.07,0.28-0.02,0.42l0.11,0.3 c0.1,0.29,0.42,0.43,0.7,0.34l7.37-2.59c0.14-0.05,0.25-0.15,0.31-0.28c0.06-0.13,0.07-0.28,0.02-0.42l-0.11-0.3 c-0.05-0.14-0.15-0.25-0.28-0.31C460.74,42.24,460.66,42.22,460.58,42.22z"></path> </g> <g> <path class="st8" d="M458.76,70.45c-0.09,0-0.19-0.01-0.28-0.03l-7.68-1.44c-0.83-0.16-1.38-0.96-1.23-1.79l0.06-0.32 c0.16-0.83,0.96-1.39,1.79-1.23l7.68,1.44c0.4,0.08,0.75,0.3,0.99,0.64c0.23,0.34,0.32,0.75,0.24,1.15l-0.06,0.32 C460.13,69.93,459.49,70.45,458.76,70.45z M451.14,66.61c-0.26,0-0.49,0.19-0.54,0.45l-0.06,0.32c-0.03,0.14,0,0.29,0.09,0.41 c0.08,0.12,0.21,0.2,0.35,0.23l7.68,1.44c0.3,0.05,0.59-0.14,0.64-0.44l0.06-0.32c0.03-0.15,0-0.29-0.09-0.41 c-0.08-0.12-0.21-0.2-0.35-0.23l-7.68-1.44C451.21,66.61,451.18,66.61,451.14,66.61z"></path> </g> <g> <path class="st8" d="M393.87,26.43c-0.41,0-0.8-0.16-1.09-0.45l-5.52-5.52c-0.29-0.29-0.45-0.68-0.45-1.09 c0-0.41,0.16-0.8,0.45-1.09l0.23-0.23c0.6-0.6,1.57-0.6,2.17,0l5.52,5.52c0.6,0.6,0.6,1.57,0,2.17l-0.23,0.23 C394.67,26.27,394.28,26.43,393.87,26.43z M388.58,18.59c-0.14,0-0.28,0.05-0.39,0.16l-0.23,0.23c-0.1,0.1-0.16,0.24-0.16,0.39 c0,0.15,0.06,0.29,0.16,0.39l5.52,5.52c0.21,0.21,0.57,0.21,0.78,0l0.23-0.23c0.21-0.21,0.21-0.56,0-0.78l-5.52-5.52 C388.86,18.64,388.72,18.59,388.58,18.59z"></path> </g> <g> <path class="st8" d="M384.2,47.2c-0.17,0-0.34-0.03-0.51-0.09l-7.37-2.59c-0.39-0.14-0.7-0.41-0.88-0.78 c-0.18-0.37-0.2-0.79-0.06-1.17l0.11-0.31c0.14-0.39,0.41-0.7,0.78-0.88c0.37-0.18,0.79-0.2,1.17-0.06l7.37,2.59 c0.39,0.14,0.7,0.41,0.88,0.78c0.18,0.37,0.2,0.79,0.06,1.17l-0.11,0.3C385.43,46.81,384.83,47.2,384.2,47.2z M376.94,42.22 c-0.08,0-0.16,0.02-0.24,0.05c-0.13,0.06-0.23,0.17-0.28,0.31l-0.11,0.31c-0.1,0.29,0.05,0.6,0.34,0.7l7.37,2.59 c0.29,0.11,0.6-0.05,0.7-0.34l0.11-0.3c0.05-0.14,0.04-0.29-0.02-0.42s-0.18-0.23-0.31-0.28h0l-7.37-2.59 C377.06,42.23,377,42.22,376.94,42.22z"></path> </g> <g> <path class="st8" d="M378.75,70.45c-0.72,0-1.37-0.52-1.51-1.25l-0.06-0.32c-0.08-0.4,0.01-0.81,0.24-1.15 c0.23-0.34,0.58-0.57,0.99-0.64l7.68-1.44c0.84-0.16,1.64,0.4,1.79,1.23l0.06,0.32c0.08,0.4-0.01,0.81-0.24,1.15 c-0.23,0.34-0.58,0.57-0.99,0.64l-7.68,1.44C378.94,70.44,378.85,70.45,378.75,70.45z M386.27,66.62l-7.68,1.44 c-0.15,0.03-0.27,0.11-0.35,0.23c-0.08,0.12-0.11,0.27-0.09,0.41l0.06,0.32c0.06,0.3,0.34,0.49,0.64,0.44l7.68-1.44 c0.14-0.03,0.27-0.11,0.35-0.23c0.08-0.12,0.11-0.27,0.09-0.41l-0.06-0.32C386.86,66.76,386.57,66.56,386.27,66.62L386.27,66.62z "></path> </g> </g> <g> <path class="st8" d="M430.21,115.9h-22.91c-2.58,0-4.67-2.1-4.67-4.67c0-2.58,2.1-4.67,4.67-4.67h22.91c2.57,0,4.67,2.1,4.67,4.67 C434.88,113.8,432.79,115.9,430.21,115.9z M407.31,107.54c-2.03,0-3.69,1.65-3.69,3.69c0,2.03,1.65,3.69,3.69,3.69h22.91 c2.03,0,3.68-1.65,3.68-3.69c0-2.03-1.65-3.69-3.68-3.69H407.31z"></path> </g> <g> <path class="st8" d="M418.76,91.27c-1.25,0-2.26-1.01-2.26-2.26V58.55c0-1.25,1.01-2.26,2.26-2.26s2.26,1.01,2.26,2.26v30.46 C421.02,90.26,420.01,91.27,418.76,91.27z M418.76,57.28c-0.7,0-1.28,0.57-1.28,1.27v30.46c0,0.7,0.57,1.27,1.28,1.27 s1.28-0.57,1.28-1.27V58.55C420.03,57.85,419.46,57.28,418.76,57.28z"></path> </g> </g> <g> </g> <g> </g> <g> </g> <g> </g> <g> </g> <g> </g> </svg> 